<svg xmlns="http://www.w3.org/2000/svg" viewBox="-14 -16 68 68" style="--t:1"><style>.lbl{font-family:-apple-system,"PingFang SC",sans-serif;font-weight:700}.fig{transform-origin:20px 40px}.hand,.tap,.h1,.h2{transform-box:fill-box}.hand{transform-origin:center}.fig{animation:think calc(var(--t)*3s) ease-in-out infinite}@keyframes think{50%{transform:rotate(-3deg)}}.c{animation:pulse calc(var(--t)*1.6s) ease-in-out infinite}@keyframes pulse{50%{opacity:.35}}.b1{animation:pulse calc(var(--t)*1.6s) infinite}.b2{animation:pulse calc(var(--t)*1.6s) infinite .2s}.b1,.b2{animation:flick 1.6s ease-in-out infinite}.b2{animation-delay:.2s}.b3{animation:flickr 1.6s ease-in-out infinite .6s}@keyframes flick{0%,20%{transform:translateX(0)}40%,70%{transform:translateX(5px)}90%,100%{transform:translateX(0)}}@keyframes flickr{0%,20%{transform:translateX(0)}40%,70%{transform:translateX(-5px)}90%,100%{transform:translateX(0)}}@media (prefers-reduced-motion:reduce){*{animation:none!important}}*{animation:none!important;transition:none!important}</style><defs><linearGradient id="g" x1="0" y1="0" x2="1" y2="1"><stop offset="0" stop-color="#5fdcf0"/><stop offset="1" stop-color="#0a82a8"/></linearGradient><clipPath id="t"><rect width="40" height="40" rx="9"/></clipPath></defs><ellipse cx="20" cy="46.5" rx="14" ry="1.8" fill="#000" opacity=".1"/><g class="fig"><rect width="40" height="40" rx="9" fill="url(#g)"/><g clip-path="url(#t)"><path d="M8 7.5h24" fill="none" stroke="#fff" stroke-width="1.2" stroke-linecap="round" stroke-linejoin="round"/><path d="M8 4.5v6M32 4.5v6" fill="none" stroke="#fff" stroke-width="1.6" stroke-linecap="round" stroke-linejoin="round"/><g fill="#fff"><ellipse class="b1" cx="12" cy="7.5" rx="1.7" ry="2"/><ellipse class="b2" cx="15.6" cy="7.5" rx="1.7" ry="2"/><ellipse class="b3" cx="24.4" cy="7.5" rx="1.7" ry="2"/><ellipse cx="28" cy="7.5" rx="1.7" ry="2"/></g><circle cx="20" cy="23" r="10" fill="#fff"/><circle cx="15.9" cy="22.4" r="1.2" fill="#0a82a8"/><circle cx="24.1" cy="22.4" r="1.2" fill="#0a82a8"/><path d="M18.4 28h3.2" fill="none" stroke="#0a82a8" stroke-width="1.3" stroke-linecap="round" stroke-linejoin="round"/><g fill="none" stroke="#0a82a8" stroke-width="1.3" stroke-linecap="round" stroke-linejoin="round"><circle cx="15.9" cy="22.4" r="3.1"/><circle cx="24.1" cy="22.4" r="3.1"/><path d="M19 22.4h2"/></g></g></g><g class="bub"><circle class="b1" cx="37.5" cy="3.5" r="1.3" fill="#fff" stroke="#cfd6e2" stroke-width=".6"/><circle class="b2" cx="40.5" cy="-.5" r="2" fill="#fff" stroke="#cfd6e2" stroke-width=".6"/><rect x="33" y="-13.5" width="18.5" height="11.5" rx="5.75" fill="#fff" stroke="#cfd6e2" stroke-width=".6"/><g class="c"><text x="42.25" y="-7.6" text-anchor="middle" dominant-baseline="central" class="lbl" fill="#0a82a8" font-size="7">∑</text></g></g><g class="hand"><circle cx="42" cy="32" r="3.6" fill="#0a82a8" stroke="#fff" stroke-width="1.3"/></g></svg>