<svg xmlns="http://www.w3.org/2000/svg" viewBox="-14 -16 68 68" style="--t:1"><style>.lbl{font-family:-apple-system,"PingFang SC",sans-serif;font-weight:700}.fig{transform-origin:20px 40px}.hand,.tap,.h1,.h2{transform-box:fill-box}.hand{transform-origin:center}.fig{animation:jump calc(var(--t)*1s) cubic-bezier(.3,0,.5,1) infinite}@keyframes jump{0%,60%,100%{transform:translateY(0)}30%{transform:translateY(-5px)}}.pop{transform-box:fill-box;transform-origin:center;animation:pop calc(var(--t)*1s) ease-out infinite}@keyframes pop{0%,20%{transform:scale(.4);opacity:0}40%,90%{transform:scale(1);opacity:1}100%{opacity:0}}.spk{animation:tw calc(var(--t)*1s) ease-in-out infinite}@keyframes tw{50%{opacity:.2}}@media (prefers-reduced-motion:reduce){*{animation:none!important}}*{animation:none!important;transition:none!important}</style><defs><linearGradient id="g" x1="0" y1="0" x2="1" y2="1"><stop offset="0" stop-color="#7a6dff"/><stop offset="1" stop-color="#23198a"/></linearGradient><clipPath id="t"><rect width="40" height="40" rx="9"/></clipPath></defs><ellipse cx="20" cy="46.5" rx="14" ry="1.8" fill="#000" opacity=".1"/><g class="fig"><rect width="40" height="40" rx="9" fill="url(#g)"/><g clip-path="url(#t)"><path d="M8.6 19a11.4 11.4 0 0 1 22.8 0" fill="none" stroke="#fff" stroke-width="2.2" stroke-linecap="round" stroke-linejoin="round"/><rect x="10.5" y="10" width="19" height="18" rx="8" fill="#fff"/><rect x="6" y="15" width="4.2" height="8" rx="2.1" fill="#fff"/><rect x="29.8" y="15" width="4.2" height="8" rx="2.1" fill="#fff"/><path d="M14.379999999999999 20.200000000000003q1.62 -2.16 3.24 0M22.38 20.200000000000003q1.62 -2.16 3.24 0" fill="none" stroke="#23198a" stroke-width="1.4" stroke-linecap="round" stroke-linejoin="round"/><path d="M17.66 23.2h4.680000000000001a2.3400000000000003 2.3400000000000003 0 0 1 -4.680000000000001 0z" fill="#23198a"/><rect class="f1" x="16" y="29.4" width="8" height="2" rx=".6" fill="#ffd84a"/><rect class="f2" x="13" y="31.8" width="14" height="2" rx=".6" fill="#ffa24a"/><rect class="f3" x="9" y="34.2" width="22" height="2" rx=".6" fill="#ff6b5a"/></g></g><g class="spk" fill="#7a6dff"><path d="M-6 6l.9 2.2 2.2.9-2.2.9-.9 2.2-.9-2.2-2.2-.9 2.2-.9z"/><path d="M46 20l.7 1.6 1.6.7-1.6.7-.7 1.6-.7-1.6-1.6-.7 1.6-.7z"/><circle cx="-4" cy="24" r="1"/></g><g class="pop"><text x="44" y="-5" text-anchor="middle" dominant-baseline="central" class="lbl" fill="#23198a" font-size="10">🏆</text></g></svg>