<svg xmlns="http://www.w3.org/2000/svg" viewBox="-14 -16 68 68" style="--t:1.1"><style>.lbl{font-family:-apple-system,"PingFang SC",sans-serif;font-weight:700}.fig{transform-origin:20px 40px}.hand,.tap,.h1,.h2{transform-box:fill-box}.hand{transform-origin:center}.fig{animation:jump calc(var(--t)*1s) cubic-bezier(.3,0,.5,1) infinite}@keyframes jump{0%,60%,100%{transform:translateY(0)}30%{transform:translateY(-5px)}}.pop{transform-box:fill-box;transform-origin:center;animation:pop calc(var(--t)*1s) ease-out infinite}@keyframes pop{0%,20%{transform:scale(.4);opacity:0}40%,90%{transform:scale(1);opacity:1}100%{opacity:0}}.spk{animation:tw calc(var(--t)*1s) ease-in-out infinite}@keyframes tw{50%{opacity:.2}}@media (prefers-reduced-motion:reduce){*{animation:none!important}}*{animation:none!important;transition:none!important}</style><defs><linearGradient id="g" x1="0" y1="0" x2="1" y2="1"><stop offset="0" stop-color="#57d6b8"/><stop offset="1" stop-color="#0b7d68"/></linearGradient><clipPath id="t"><rect width="40" height="40" rx="9"/></clipPath></defs><ellipse cx="20" cy="46.5" rx="14" ry="1.8" fill="#000" opacity=".1"/><g class="fig"><rect width="40" height="40" rx="9" fill="url(#g)"/><g clip-path="url(#t)"><rect x="6.5" y="10" width="21" height="20" rx="8.5" fill="#fff"/><path d="M12.270000000000001 20.400000000000002q1.53 -2.04 3.06 0M18.669999999999998 20.400000000000002q1.53 -2.04 3.06 0" fill="none" stroke="#0b7d68" stroke-width="1.4" stroke-linecap="round" stroke-linejoin="round"/><path d="M14.79 24.2h4.42a2.21 2.21 0 0 1 -4.42 0z" fill="#0b7d68"/><g class="glass"><path d="M27 18.5h9l-4.5 6 4.5 6h-9l4.5-6z" fill="#fff" stroke="#0b7d68" stroke-width=".9" stroke-linejoin="round"/><path d="M29 19.8h5l-2.5 3.2z" fill="#ffd84a"/><path d="M29.6 29.4h3.8l-1.9-2.4z" fill="#ffd84a"/></g></g></g><g class="spk" fill="#57d6b8"><path d="M-6 6l.9 2.2 2.2.9-2.2.9-.9 2.2-.9-2.2-2.2-.9 2.2-.9z"/><path d="M46 20l.7 1.6 1.6.7-1.6.7-.7 1.6-.7-1.6-1.6-.7 1.6-.7z"/><circle cx="-4" cy="24" r="1"/></g><g class="pop"><text x="44" y="-5" text-anchor="middle" dominant-baseline="central" class="lbl" fill="#0b7d68" font-size="10">🛡</text></g></svg>