<svg xmlns="http://www.w3.org/2000/svg" viewBox="-14 -16 68 68" style="--t:1.5"><style>.lbl{font-family:-apple-system,"PingFang SC",sans-serif;font-weight:700}.fig{transform-origin:20px 40px}.hand,.tap,.h1,.h2{transform-box:fill-box}.hand{transform-origin:center}.h1{animation:key calc(var(--t)*0.24s) ease-in-out infinite alternate}.h2{animation:key calc(var(--t)*0.24s) ease-in-out infinite alternate-reverse}@keyframes key{to{transform:translateY(-2px)}}.code rect{transform-box:fill-box;transform-origin:0 50%;animation:ln calc(var(--t)*1.8s) steps(1) infinite}.l2{animation-delay:calc(var(--t)*0.3s)!important}.l3{animation-delay:calc(var(--t)*0.6s)!important}@keyframes ln{0%{transform:scaleX(0)}30%,100%{transform:scaleX(1)}}.swing{transform-origin:20px 6px;animation:swing calc(var(--t)*2s) ease-in-out infinite}@keyframes swing{25%{transform:rotate(4deg)}75%{transform:rotate(-4deg)}}.ring{transform-origin:30px 8px;animation:ring 1.6s ease-out infinite}@keyframes ring{from{transform:scale(.5);opacity:1}to{transform:scale(1.4);opacity:0}}@media (prefers-reduced-motion:reduce){*{animation:none!important}}*{animation:none!important;transition:none!important}</style><defs><linearGradient id="g" x1="0" y1="0" x2="1" y2="1"><stop offset="0" stop-color="#a3b5ff"/><stop offset="1" stop-color="#4b5fd6"/></linearGradient><clipPath id="t"><rect width="40" height="40" rx="9"/></clipPath></defs><ellipse cx="20" cy="46.5" rx="14" ry="1.8" fill="#000" opacity=".1"/><g class="fig"><rect width="40" height="40" rx="9" fill="url(#g)"/><g clip-path="url(#t)"><g class="think"><circle class="ring" cx="30" cy="8" r="4" fill="none" stroke="#fff" stroke-width="1.2" stroke-linecap="round" stroke-linejoin="round"/><circle cx="30" cy="8" r="1.6" fill="#fff"/><circle cx="25.4" cy="12.6" r=".9" fill="#fff"/></g><g class="swing"><path d="M6 21 3.5 12.5M34 21l2.5-8.5" fill="none" stroke="#fff" stroke-width="1" stroke-linecap="round" stroke-linejoin="round" opacity=".7"/><circle cx="20" cy="19" r="7" fill="#fff"/><path d="M16.3 18.6h3a1.5 1.5 0 0 1-3 0zM20.7 18.6h3a1.5 1.5 0 0 1-3 0z" fill="#4b5fd6"/><path d="M18.6 22.4q1.4.8 2.8 0" fill="none" stroke="#4b5fd6" stroke-width="1.1" stroke-linecap="round" stroke-linejoin="round"/><path d="M6 21q14 13 28 0-14 8-28 0z" fill="#fff" stroke="#4b5fd6" stroke-width=".8"/><path d="M10 23.8q10 6 20 0" stroke="#4b5fd6" stroke-width=".7" stroke-dasharray="1.2 1.2" fill="none" opacity=".4"/></g></g></g><rect x="3" y="27" width="34" height="16" rx="3" fill="#eef1f6" stroke="#c9d1dd" stroke-width=".8"/><text x="20" y="35" text-anchor="middle" dominant-baseline="central" class="lbl" fill="#4b5fd6" font-size="7">∞</text><rect x="-2" y="42.5" width="44" height="3" rx="1.5" fill="#c9d1dd"/><g class="hand h1"><circle cx="10" cy="42" r="3.6" fill="#4b5fd6" stroke="#fff" stroke-width="1.3"/></g><g class="hand h2"><circle cx="30" cy="42" r="3.6" fill="#4b5fd6" stroke="#fff" stroke-width="1.3"/></g><g fill="#4b5fd6" class="code"><rect class="l1" x="42" y="6" width="9" height="1.8" rx=".9"/><rect class="l2" x="42" y="10" width="6" height="1.8" rx=".9"/><rect class="l3" x="42" y="14" width="8" height="1.8" rx=".9"/></g></svg>