<svg xmlns="http://www.w3.org/2000/svg" viewBox="-14 -16 68 68" style="--t:1"><style>.lbl{font-family:-apple-system,"PingFang SC",sans-serif;font-weight:700}.fig{transform-origin:20px 40px}.hand,.tap,.h1,.h2{transform-box:fill-box}.hand{transform-origin:center}.fig{animation:snore calc(var(--t)*3s) ease-in-out infinite}@keyframes snore{50%{transform:rotate(-3deg) translateY(1px)}}.zz text{animation:zz calc(var(--t)*3s) ease-in-out infinite}.zz text:nth-child(2){animation-delay:calc(var(--t)*1s)}.zz text:nth-child(3){animation-delay:calc(var(--t)*2s)}@keyframes zz{0%{opacity:0;transform:translateY(3px)}30%,70%{opacity:1}100%{opacity:0;transform:translateY(-3px)}}@media (prefers-reduced-motion:reduce){*{animation:none!important}}*{animation:none!important;transition:none!important}</style><defs><linearGradient id="g" x1="0" y1="0" x2="1" y2="1"><stop offset="0" stop-color="#ff9270"/><stop offset="1" stop-color="#d8342c"/></linearGradient><clipPath id="t"><rect width="40" height="40" rx="9"/></clipPath></defs><ellipse cx="20" cy="46.5" rx="14" ry="1.8" fill="#000" opacity=".1"/><g class="fig"><rect width="40" height="40" rx="9" fill="url(#g)"/><g clip-path="url(#t)"><g class="arc"><path d="M31.3 14.5A13 13 0 1 1 26.5 9.7" fill="none" stroke="#fff" stroke-width="1.6" stroke-linecap="round" stroke-linejoin="round"/><path d="M28.2 10.7 25.7 11.1 27.3 8.4z" fill="#fff" stroke="#fff" stroke-width="1" stroke-linejoin="round"/></g><path class="heart" d="M8 10.8 5.3 8.1a1.7 1.7 0 0 1 2.7-2.1 1.7 1.7 0 0 1 2.7 2.1z" fill="#fff"/><circle cx="20" cy="21" r="8.6" fill="#fff"/><path d="M15.160000000000002 19.400000000000002q1.4400000000000002 1.4400000000000002 2.8800000000000003 0M21.959999999999997 19.400000000000002q1.4400000000000002 1.4400000000000002 2.8800000000000003 0" fill="none" stroke="#d8342c" stroke-width="1.4" stroke-linecap="round" stroke-linejoin="round"/><path d="M18.6 24.4q1.4 1 2.8 0" fill="none" stroke="#d8342c" stroke-width="1.2" stroke-linecap="round" stroke-linejoin="round"/><circle cx="14.6" cy="23" r="1" fill="#ffc2b0"/><circle cx="25.4" cy="23" r="1" fill="#ffc2b0"/></g></g><g class="zz" fill="#d8342c"><text x="40" y="2" text-anchor="middle" dominant-baseline="central" class="lbl" fill="#d8342c" font-size="7">Z</text><text x="45" y="-4" text-anchor="middle" dominant-baseline="central" class="lbl" fill="#d8342c" font-size="8.5">Z</text><text x="50" y="-11" text-anchor="middle" dominant-baseline="central" class="lbl" fill="#d8342c" font-size="10">Z</text></g></svg>