<svg xmlns="http://www.w3.org/2000/svg" viewBox="-14 -16 68 68" style="--t:0.9"><style>.lbl{font-family:-apple-system,"PingFang SC",sans-serif;font-weight:700}.fig{transform-origin:20px 40px}.hand,.tap,.h1,.h2{transform-box:fill-box}.hand{transform-origin:center}.fig,.load{animation:heave calc(var(--t)*0.8s) ease-in-out infinite}@keyframes heave{50%{transform:translateY(1.2px)}}.fl{animation:stepl calc(var(--t)*0.8s) ease-in-out infinite}.fr{animation:stepl calc(var(--t)*0.8s) ease-in-out infinite reverse}@keyframes stepl{50%{transform:translateY(-1.8px)}}.sweat{animation:drip calc(var(--t)*1.2s) ease-in infinite}@keyframes drip{from{transform:translateY(0);opacity:1}to{transform:translateY(5px);opacity:0}}.x{stroke-dasharray:14;animation:strike 2.8s ease-in-out infinite}.x2{animation-delay:.4s}@keyframes strike{0%,10%{stroke-dashoffset:14}40%,90%{stroke-dashoffset:0}100%{stroke-dashoffset:14}}.ok{transform-box:fill-box;transform-origin:center;animation:ok 2.8s ease-in-out infinite}@keyframes ok{0%,45%{transform:scale(0)}60%{transform:scale(1.4)}70%,90%{transform:scale(1)}100%{transform:scale(0)}}@media (prefers-reduced-motion:reduce){*{animation:none!important}}*{animation:none!important;transition:none!important}</style><defs><linearGradient id="g" x1="0" y1="0" x2="1" y2="1"><stop offset="0" stop-color="#ffcf40"/><stop offset="1" stop-color="#ec7300"/></linearGradient><clipPath id="t"><rect width="40" height="40" rx="9"/></clipPath></defs><ellipse cx="20" cy="46.5" rx="14" ry="1.8" fill="#000" opacity=".1"/><ellipse class="fl" cx="13" cy="42.5" rx="4.4" ry="2.4" fill="#ec7300" stroke="#fff" stroke-width="1.1"/><ellipse class="fr" cx="27" cy="42.5" rx="4.4" ry="2.4" fill="#ec7300" stroke="#fff" stroke-width="1.1"/><g class="fig"><rect width="40" height="40" rx="9" fill="url(#g)"/><g clip-path="url(#t)"><circle cx="20" cy="12.6" r="7.6" fill="#fff"/><path d="M15.6 10.2h3M21.4 10.2h3" fill="none" stroke="#ec7300" stroke-width="1.4" stroke-linecap="round" stroke-linejoin="round"/><ellipse cx="17" cy="12.8" rx="1.2" ry="1.4" fill="#ec7300"/><ellipse cx="23" cy="12.8" rx="1.2" ry="1.4" fill="#ec7300"/><path d="M18.2 16.4h3.6" fill="none" stroke="#ec7300" stroke-width="1.3" stroke-linecap="round" stroke-linejoin="round"/><rect x="10.5" y="19.5" width="19" height="16" rx="2.4" fill="#fff" stroke="#ec7300" stroke-width="1.1"/><g fill="#ec7300" opacity=".35"><rect x="13.5" y="22.8" width="11" height="1.6" rx=".8"/><rect x="13.5" y="26.8" width="9" height="1.6" rx=".8"/><rect x="13.5" y="30.8" width="10" height="1.6" rx=".8"/></g><path class="x x1" d="M12.5 23.6h13" stroke="#ff5f57" stroke-width="1.3" stroke-linecap="round"/><path class="x x2" d="M12.5 31.6h12" stroke="#ff5f57" stroke-width="1.3" stroke-linecap="round"/><path class="ok" d="M24.4 27.4l1.4 1.4 2.4-2.8" fill="none" stroke="#30c85e" stroke-width="1.4" stroke-linecap="round" stroke-linejoin="round"/></g></g><g class="load"><rect x="6" y="-13.5" width="28" height="10" rx="2.4" fill="#fff" stroke="#ec7300" stroke-width="1.1"/><text x="20" y="-8.3" text-anchor="middle" dominant-baseline="central" class="lbl" fill="#ec7300" font-size="5">1 项</text><g class=""><circle cx="3" cy="-3" r="3.6" fill="#ec7300" stroke="#fff" stroke-width="1.3"/></g><g class=""><circle cx="37" cy="-3" r="3.6" fill="#ec7300" stroke="#fff" stroke-width="1.3"/></g></g><path class="sweat" d="M43 5q2.6 3.4 0 5.2-2.6-1.8 0-5.2z" fill="#6fc3ff"/></svg>