<svg xmlns="http://www.w3.org/2000/svg" viewBox="-14 -16 68 68" style="--t:0.9"><style>.lbl{font-family:-apple-system,"PingFang SC",sans-serif;font-weight:700}.fig{transform-origin:20px 40px}.hand,.tap,.h1,.h2{transform-box:fill-box}.hand{transform-origin:center}.fig{animation:shake calc(var(--t)*0.9s) ease-in-out infinite}@keyframes shake{0%,50%,100%{transform:translateX(0)}10%,30%{transform:translateX(-1.6px)}20%,40%{transform:translateX(1.6px)}}.bang{transform-box:fill-box;transform-origin:center;animation:pop calc(var(--t)*0.9s) ease-out infinite}@keyframes pop{0%{transform:scale(.4)}30%,100%{transform:scale(1)}}.sweat{animation:drip calc(var(--t)*1.2s) ease-in infinite}@keyframes drip{from{transform:translateY(0);opacity:1}to{transform:translateY(5px);opacity:0}}@media (prefers-reduced-motion:reduce){*{animation:none!important}}*{animation:none!important;transition:none!important}</style><defs><linearGradient id="g" x1="0" y1="0" x2="1" y2="1"><stop offset="0" stop-color="#ffcf40"/><stop offset="1" stop-color="#ec7300"/></linearGradient><clipPath id="t"><rect width="40" height="40" rx="9"/></clipPath></defs><ellipse cx="20" cy="46.5" rx="14" ry="1.8" fill="#000" opacity=".1"/><g class="fig"><rect width="40" height="40" rx="9" fill="url(#g)"/><g clip-path="url(#t)"><circle cx="20" cy="12.6" r="7.6" fill="#fff"/><path d="M16.02 11.82l1.9599999999999997 1.9599999999999997m0 -1.9599999999999997l-1.9599999999999997 1.9599999999999997M22.02 11.82l1.9599999999999997 1.9599999999999997m0 -1.9599999999999997l-1.9599999999999997 1.9599999999999997" fill="none" stroke="#ec7300" stroke-width="1.3" stroke-linecap="round" stroke-linejoin="round"/><path d="M17.6 16.2q.6-.9 1.2 0t1.2 0 1.2 0 1.2 0" fill="none" stroke="#ec7300" stroke-width="1.1" stroke-linecap="round" stroke-linejoin="round"/><rect x="10.5" y="19.5" width="19" height="16" rx="2.4" fill="#fff" stroke="#ec7300" stroke-width="1.1"/><g fill="#ec7300" opacity=".35"><rect x="13.5" y="22.8" width="11" height="1.6" rx=".8"/><rect x="13.5" y="26.8" width="9" height="1.6" rx=".8"/><rect x="13.5" y="30.8" width="10" height="1.6" rx=".8"/></g><path class="x x1" d="M12.5 23.6h13" stroke="#ff5f57" stroke-width="1.3" stroke-linecap="round"/><path class="x x2" d="M12.5 31.6h12" stroke="#ff5f57" stroke-width="1.3" stroke-linecap="round"/><path class="ok" d="M24.4 27.4l1.4 1.4 2.4-2.8" fill="none" stroke="#30c85e" stroke-width="1.4" stroke-linecap="round" stroke-linejoin="round"/></g></g><g class="bang"><text x="45" y="-5" text-anchor="middle" dominant-baseline="central" class="lbl" fill="#ff453a" font-size="6">STOP</text></g><path class="sweat" d="M43 8q2.6 3.4 0 5.2-2.6-1.8 0-5.2z" fill="#6fc3ff"/></svg>