<svg xmlns="http://www.w3.org/2000/svg" viewBox="-14 -16 68 68" style="--t:1"><style>.lbl{font-family:-apple-system,"PingFang SC",sans-serif;font-weight:700}.fig{transform-origin:20px 40px}.hand,.tap,.h1,.h2{transform-box:fill-box}.hand{transform-origin:center}.fig{animation:think calc(var(--t)*3s) ease-in-out infinite}@keyframes think{50%{transform:rotate(-3deg)}}.c{animation:pulse calc(var(--t)*1.6s) ease-in-out infinite}@keyframes pulse{50%{opacity:.35}}.b1{animation:pulse calc(var(--t)*1.6s) infinite}.b2{animation:pulse calc(var(--t)*1.6s) infinite .2s}.sweep{transform-origin:20px 22.3px;animation:spin 2s linear infinite}@keyframes spin{to{transform:rotate(360deg)}}.blip{animation:blip 2s steps(1) infinite}@keyframes blip{0%,10%{opacity:1}20%,100%{opacity:.15}}.tip{animation:tip 1s steps(1) infinite}@keyframes tip{50%{opacity:.3}}@media (prefers-reduced-motion:reduce){*{animation:none!important}}*{animation:none!important;transition:none!important}</style><defs><linearGradient id="g" x1="0" y1="0" x2="1" y2="1"><stop offset="0" stop-color="#56688a"/><stop offset="1" stop-color="#121a2a"/></linearGradient><clipPath id="t"><rect width="40" height="40" rx="9"/></clipPath></defs><ellipse cx="20" cy="46.5" rx="14" ry="1.8" fill="#000" opacity=".1"/><g class="fig"><rect width="40" height="40" rx="9" fill="url(#g)"/><g clip-path="url(#t)"><path d="M20 11.4V7" fill="none" stroke="#fff" stroke-width="1.4" stroke-linecap="round" stroke-linejoin="round"/><circle class="tip" cx="20" cy="6" r="1.6" fill="#ff5f57"/><path d="M9 23a11 11 0 0 1 22 0v5a3 3 0 0 1-3 3H12a3 3 0 0 1-3-3z" fill="#fff"/><defs><clipPath id="v"><rect x="11" y="18.6" width="18" height="7.4" rx="3.7"/></clipPath></defs><rect x="11" y="18.6" width="18" height="7.4" rx="3.7" fill="#121a2a"/><g clip-path="url(#v)"><path class="sweep" d="M20 22.3 20 12A10.3 10.3 0 0 1 28.9 17.2z" fill="#7cf0c4" opacity=".55"/><circle class="blip" cx="24.6" cy="21" r=".9" fill="#7cf0c4"/><circle cx="20" cy="22.3" r=".8" fill="#7cf0c4"/></g><path d="M18 29h4" fill="none" stroke="#121a2a" stroke-width="1.3" stroke-linecap="round" stroke-linejoin="round"/></g></g><g class="bub"><circle class="b1" cx="37.5" cy="3.5" r="1.3" fill="#fff" stroke="#cfd6e2" stroke-width=".6"/><circle class="b2" cx="40.5" cy="-.5" r="2" fill="#fff" stroke="#cfd6e2" stroke-width=".6"/><rect x="33" y="-13.5" width="18.5" height="11.5" rx="5.75" fill="#fff" stroke="#cfd6e2" stroke-width=".6"/><g class="c"><text x="42.25" y="-7.6" text-anchor="middle" dominant-baseline="central" class="lbl" fill="#121a2a" font-size="7">◔</text></g></g><g class="hand"><circle cx="42" cy="32" r="3.6" fill="#121a2a" stroke="#fff" stroke-width="1.3"/></g></svg>