<svg xmlns="http://www.w3.org/2000/svg" viewBox="-14 -16 68 68" style="--t:0.9"><style>.lbl{font-family:-apple-system,"PingFang SC",sans-serif;font-weight:700}.fig{transform-origin:20px 40px}.hand,.tap,.h1,.h2{transform-box:fill-box}.hand{transform-origin:center}.h1{animation:key calc(var(--t)*0.24s) ease-in-out infinite alternate}.h2{animation:key calc(var(--t)*0.24s) ease-in-out infinite alternate-reverse}@keyframes key{to{transform:translateY(-2px)}}.code rect{transform-box:fill-box;transform-origin:0 50%;animation:ln calc(var(--t)*1.8s) steps(1) infinite}.l2{animation-delay:calc(var(--t)*0.3s)!important}.l3{animation-delay:calc(var(--t)*0.6s)!important}@keyframes ln{0%{transform:scaleX(0)}30%,100%{transform:scaleX(1)}}.cube{transform-origin:20px 26px;animation:sq 1s ease-in-out infinite}@keyframes sq{0%,100%{transform:translateY(0)}35%{transform:translateY(2.4px) scale(1.08,.88)}65%{transform:translateY(-2.6px) scale(.97,1.04)}}.coil{transform-box:fill-box;transform-origin:50% 100%;animation:coil 1s ease-in-out infinite}@keyframes coil{35%{transform:scaleY(.72)}65%{transform:scaleY(1.12)}}@media (prefers-reduced-motion:reduce){*{animation:none!important}}*{animation:none!important;transition:none!important}</style><defs><linearGradient id="g" x1="0" y1="0" x2="1" y2="1"><stop offset="0" stop-color="#c08eff"/><stop offset="1" stop-color="#6a2bd6"/></linearGradient><clipPath id="t"><rect width="40" height="40" rx="9"/></clipPath></defs><ellipse cx="20" cy="46.5" rx="14" ry="1.8" fill="#000" opacity=".1"/><g class="fig"><rect width="40" height="40" rx="9" fill="url(#g)"/><g clip-path="url(#t)"><path d="M11 36.5h18" fill="none" stroke="#fff" stroke-width="1.6" stroke-linecap="round" stroke-linejoin="round"/><path class="coil" d="M15 35.2l10-1.5-10-1.5 10-1.5-10-1.5 10-1.5" fill="none" stroke="#fff" stroke-width="1.4" stroke-linecap="round" stroke-linejoin="round"/><g class="cube"><rect x="11" y="8" width="18" height="18" rx="3.4" fill="#fff"/><path d="M13.8 13.2l3-.8M23.4 13.4h3" fill="none" stroke="#6a2bd6" stroke-width="1.3" stroke-linecap="round" stroke-linejoin="round"/><circle cx="16" cy="16.4" r="1.3" fill="#6a2bd6"/><circle cx="24.4" cy="16.4" r="1.3" fill="#6a2bd6"/><path d="M17.4 21q2.6 1 4.8-.8" fill="none" stroke="#6a2bd6" stroke-width="1.3" stroke-linecap="round" stroke-linejoin="round"/><g transform="rotate(-35 24.6 10.4)"><rect x="21.4" y="9.1" width="6.4" height="2.6" rx="1.3" fill="#ffd9b0"/><rect x="23.8" y="9.1" width="1.6" height="2.6" fill="#f2b98a"/></g></g></g></g><rect x="3" y="27" width="34" height="16" rx="3" fill="#eef1f6" stroke="#c9d1dd" stroke-width=".8"/><text x="20" y="35" text-anchor="middle" dominant-baseline="central" class="lbl" fill="#6a2bd6" font-size="7">−3</text><rect x="-2" y="42.5" width="44" height="3" rx="1.5" fill="#c9d1dd"/><g class="hand h1"><circle cx="10" cy="42" r="3.6" fill="#6a2bd6" stroke="#fff" stroke-width="1.3"/></g><g class="hand h2"><circle cx="30" cy="42" r="3.6" fill="#6a2bd6" stroke="#fff" stroke-width="1.3"/></g><g fill="#6a2bd6" class="code"><rect class="l1" x="42" y="6" width="9" height="1.8" rx=".9"/><rect class="l2" x="42" y="10" width="6" height="1.8" rx=".9"/><rect class="l3" x="42" y="14" width="8" height="1.8" rx=".9"/></g></svg>